<?xml version="1.0" standalone="no"?>
<!DOCTYPE svg PUBLIC "-//W3C//DTD SVG 1.1//EN" "http://www.w3.org/Graphics/SVG/1.1/DTD/svg11.dtd"><svg xmlns="http://www.w3.org/2000/svg" style="background-color:#FFF" width="140" height="140"><path stroke="black" fill="none" stroke-width="1" d="M74.087, 20.207L78.06, 20.813L81.893, 21.8L85.567, 23.147L89.067, 24.827L92.367, 26.833L95.447, 29.133L98.287, 31.713L100.867, 34.553L103.167, 37.633L105.173, 40.933L106.853, 44.433L108.2, 48.107L109.187, 51.94L109.793, 55.913L110, 60L109.793, 64.087L109.187, 68.06L108.2, 71.893L106.853, 75.567L105.173, 79.067L103.167, 82.367L100.867, 85.447L98.287, 88.287L95.447, 90.867L92.367, 93.167L89.067, 95.173L85.567, 96.853L81.893, 98.2L78.06, 99.187L74.087, 99.793L70, 100L65.913, 99.793L61.94, 99.187L58.107, 98.2L54.433, 96.853L50.933, 95.173L47.633, 93.167L44.553, 90.867L41.713, 88.287L39.133, 85.447L36.833, 82.367L34.827, 79.067L33.147, 75.567L31.8, 71.893L30.813, 68.06L30.207, 64.087L30, 60L30.207, 55.913L30.813, 51.94L31.8, 48.107L33.147, 44.433L34.827, 40.933L36.833, 37.633L39.133, 34.553L41.713, 31.713L44.553, 29.133L47.633, 26.833L50.933, 24.827L54.433, 23.147L58.107, 21.8L61.94, 20.813L65.913, 20.207L70, 20Z"/><path stroke="black" fill="none" stroke-width="1" d="M74.04, 20.707L77.96, 21.3L81.747, 22.273L85.373, 23.607L88.827, 25.267L92.087, 27.247L95.127, 29.52L97.933, 32.067L100.48, 34.873L102.753, 37.913L104.733, 41.173L106.393, 44.627L107.727, 48.253L108.7, 52.04L109.293, 55.96L109.5, 60L109.293, 64.04L108.7, 67.96L107.727, 71.747L106.393, 75.373L104.733, 78.827L102.753, 82.087L100.48, 85.127L97.933, 87.933L95.127, 90.48L92.087, 92.753L88.827, 94.733L85.373, 96.393L81.747, 97.727L77.96, 98.7L74.04, 99.293L70, 99.5L65.96, 99.293L62.04, 98.7L58.253, 97.727L54.627, 96.393L51.173, 94.733L47.913, 92.753L44.873, 90.48L42.067, 87.933L39.52, 85.127L37.247, 82.087L35.267, 78.827L33.607, 75.373L32.273, 71.747L31.3, 67.96L30.707, 64.04L30.5, 60L30.707, 55.96L31.3, 52.04L32.273, 48.253L33.607, 44.627L35.267, 41.173L37.247, 37.913L39.52, 34.873L42.067, 32.067L44.873, 29.52L47.913, 27.247L51.173, 25.267L54.627, 23.607L58.253, 22.273L62.04, 21.3L65.96, 20.707L70, 20.5Z"/><path stroke="black" fill="none" stroke-width="1" d="M73.067, 30.153L76.047, 30.607L78.92, 31.347L81.68, 32.36L84.3, 33.62L86.773, 35.127L89.08, 36.853L91.213, 38.787L93.147, 40.92L94.873, 43.227L96.38, 45.7L97.64, 48.32L98.653, 51.08L99.393, 53.953L99.847, 56.933L100, 60L99.847, 63.067L99.393, 66.047L98.653, 68.92L97.64, 71.68L96.38, 74.3L94.873, 76.773L93.147, 79.08L91.213, 81.213L89.08, 83.147L86.773, 84.873L84.3, 86.38L81.68, 87.64L78.92, 88.653L76.047, 89.393L73.067, 89.847L70, 90L66.933, 89.847L63.953, 89.393L61.08, 88.653L58.32, 87.64L55.7, 86.38L53.227, 84.873L50.92, 83.147L48.787, 81.213L46.853, 79.08L45.127, 76.773L43.62, 74.3L42.36, 71.68L41.347, 68.92L40.607, 66.047L40.153, 63.067L40, 60L40.153, 56.933L40.607, 53.953L41.347, 51.08L42.36, 48.32L43.62, 45.7L45.127, 43.227L46.853, 40.92L48.787, 38.787L50.92, 36.853L53.227, 35.127L55.7, 33.62L58.32, 32.36L61.08, 31.347L63.953, 30.607L66.933, 30.153L70, 30Z"/><path stroke="black" fill="none" stroke-width="1" d="M72.833, 65.913L72.8, 67.253L72.747, 68.233L73.893, 68.18L74.933, 68.153L74.933, 70L67.2, 70L67.2, 68.46L68.407, 68.207L68.82, 67.9L69.107, 67.427L69.273, 66.72L69.333, 65.773L69.3, 53.873L66.167, 55.807L65.3, 54.433L71.4, 49.953L72.833, 49.953Z"/></svg>